solid OpenSCAD_Model
  facet normal -1 0 0
    outer loop
      vertex -50 0 -50
      vertex -50 4 50
      vertex -50 4 -50
    endloop
  endfacet
  facet normal -1 -0 0
    outer loop
      vertex -50 4 50
      vertex -50 0 -50
      vertex -50 0 50
    endloop
  endfacet
  facet normal -0 0 1
    outer loop
      vertex -50 4 50
      vertex 50 0 50
      vertex 50 4 50
    endloop
  endfacet
  facet normal 0 0 1
    outer loop
      vertex 50 0 50
      vertex -50 4 50
      vertex -50 0 50
    endloop
  endfacet
  facet normal 1 -0 0
    outer loop
      vertex 50 0 50
      vertex 50 4 -50
      vertex 50 4 50
    endloop
  endfacet
  facet normal 1 0 0
    outer loop
      vertex 50 4 -50
      vertex 50 0 50
      vertex 50 0 -50
    endloop
  endfacet
  facet normal 0 1 0
    outer loop
      vertex 50 4 50
      vertex 48 4 12.5
      vertex -50 4 50
    endloop
  endfacet
  facet normal 0 1 0
    outer loop
      vertex 50 4 50
      vertex 48 4 -12.5
      vertex 48 4 12.5
    endloop
  endfacet
  facet normal 0 1 0
    outer loop
      vertex 48 4 -12.5
      vertex 50 4 -50
      vertex -48 4 -12.5
    endloop
  endfacet
  facet normal 0 1 -0
    outer loop
      vertex 50 4 -50
      vertex 48 4 -12.5
      vertex 50 4 50
    endloop
  endfacet
  facet normal 0 1 -0
    outer loop
      vertex -48 4 12.5
      vertex -50 4 50
      vertex 48 4 12.5
    endloop
  endfacet
  facet normal 0 1 -0
    outer loop
      vertex -48 4 -12.5
      vertex -50 4 50
      vertex -48 4 12.5
    endloop
  endfacet
  facet normal 0 1 0
    outer loop
      vertex -48 4 -12.5
      vertex -50 4 -50
      vertex -50 4 50
    endloop
  endfacet
  facet normal 0 1 0
    outer loop
      vertex -50 4 -50
      vertex -48 4 -12.5
      vertex 50 4 -50
    endloop
  endfacet
  facet normal 0 0 -1
    outer loop
      vertex -50 0 -50
      vertex 50 4 -50
      vertex 50 0 -50
    endloop
  endfacet
  facet normal -0 0 -1
    outer loop
      vertex 50 4 -50
      vertex -50 0 -50
      vertex -50 4 -50
    endloop
  endfacet
  facet normal 0 -1 0
    outer loop
      vertex -50 0 50
      vertex -37.5 0 12.5
      vertex 50 0 50
    endloop
  endfacet
  facet normal 0 -1 0
    outer loop
      vertex -50 0 50
      vertex -37.5 0 -12.5
      vertex -37.5 0 12.5
    endloop
  endfacet
  facet normal 0 -1 -0
    outer loop
      vertex -37.5 0 -12.5
      vertex -50 0 -50
      vertex 37.5 0 -12.5
    endloop
  endfacet
  facet normal 0 -1 0
    outer loop
      vertex -50 0 -50
      vertex -37.5 0 -12.5
      vertex -50 0 50
    endloop
  endfacet
  facet normal 0 -1 0
    outer loop
      vertex 37.5 0 12.5
      vertex 50 0 50
      vertex -37.5 0 12.5
    endloop
  endfacet
  facet normal 0 -1 0
    outer loop
      vertex 37.5 0 -12.5
      vertex 50 0 50
      vertex 37.5 0 12.5
    endloop
  endfacet
  facet normal 0 -1 0
    outer loop
      vertex 37.5 0 -12.5
      vertex 50 0 -50
      vertex 50 0 50
    endloop
  endfacet
  facet normal 0 -1 0
    outer loop
      vertex 50 0 -50
      vertex 37.5 0 -12.5
      vertex -50 0 -50
    endloop
  endfacet
  facet normal 1 -0 0
    outer loop
      vertex -48 1 12.5
      vertex -48 4 -12.5
      vertex -48 4 12.5
    endloop
  endfacet
  facet normal 1 0 0
    outer loop
      vertex -48 4 -12.5
      vertex -48 1 12.5
      vertex -48 1 -12.5
    endloop
  endfacet
  facet normal 0 0 -1
    outer loop
      vertex 37.5 0 12.5
      vertex -37.5 0 12.5
      vertex 37.5 1 12.5
    endloop
  endfacet
  facet normal 0 0 -1
    outer loop
      vertex 37.5 1 12.5
      vertex 48 4 12.5
      vertex 48 1 12.5
    endloop
  endfacet
  facet normal 0 0 -1
    outer loop
      vertex -37.5 1 12.5
      vertex 37.5 1 12.5
      vertex -37.5 0 12.5
    endloop
  endfacet
  facet normal 0 0 -1
    outer loop
      vertex 37.5 1 12.5
      vertex -37.5 1 12.5
      vertex 48 4 12.5
    endloop
  endfacet
  facet normal 0 0 -1
    outer loop
      vertex -48 4 12.5
      vertex -37.5 1 12.5
      vertex -48 1 12.5
    endloop
  endfacet
  facet normal 0 0 -1
    outer loop
      vertex -37.5 1 12.5
      vertex -48 4 12.5
      vertex 48 4 12.5
    endloop
  endfacet
  facet normal -1 0 0
    outer loop
      vertex 48 1 -12.5
      vertex 48 4 12.5
      vertex 48 4 -12.5
    endloop
  endfacet
  facet normal -1 -0 0
    outer loop
      vertex 48 4 12.5
      vertex 48 1 -12.5
      vertex 48 1 12.5
    endloop
  endfacet
  facet normal 0 0 1
    outer loop
      vertex 48 4 -12.5
      vertex 37.5 1 -12.5
      vertex 48 1 -12.5
    endloop
  endfacet
  facet normal 0 0 1
    outer loop
      vertex 37.5 1 -12.5
      vertex -37.5 1 -12.5
      vertex 37.5 0 -12.5
    endloop
  endfacet
  facet normal 0 0 1
    outer loop
      vertex 48 4 -12.5
      vertex -37.5 1 -12.5
      vertex 37.5 1 -12.5
    endloop
  endfacet
  facet normal -0 0 1
    outer loop
      vertex -48 4 -12.5
      vertex -37.5 1 -12.5
      vertex 48 4 -12.5
    endloop
  endfacet
  facet normal 0 0 1
    outer loop
      vertex -37.5 1 -12.5
      vertex -48 4 -12.5
      vertex -48 1 -12.5
    endloop
  endfacet
  facet normal 0 0 1
    outer loop
      vertex 37.5 0 -12.5
      vertex -37.5 1 -12.5
      vertex -37.5 0 -12.5
    endloop
  endfacet
  facet normal 0 1 -0
    outer loop
      vertex -37.5 1 -12.5
      vertex -48 1 12.5
      vertex -37.5 1 12.5
    endloop
  endfacet
  facet normal 0 1 0
    outer loop
      vertex -48 1 12.5
      vertex -37.5 1 -12.5
      vertex -48 1 -12.5
    endloop
  endfacet
  facet normal 0 1 -0
    outer loop
      vertex 48 1 -12.5
      vertex 37.5 1 12.5
      vertex 48 1 12.5
    endloop
  endfacet
  facet normal 0 1 0
    outer loop
      vertex 37.5 1 12.5
      vertex 48 1 -12.5
      vertex 37.5 1 -12.5
    endloop
  endfacet
  facet normal 1 -0 0
    outer loop
      vertex -37.5 0 12.5
      vertex -37.5 1 -12.5
      vertex -37.5 1 12.5
    endloop
  endfacet
  facet normal 1 0 0
    outer loop
      vertex -37.5 1 -12.5
      vertex -37.5 0 12.5
      vertex -37.5 0 -12.5
    endloop
  endfacet
  facet normal -1 0 0
    outer loop
      vertex 37.5 0 -12.5
      vertex 37.5 1 12.5
      vertex 37.5 1 -12.5
    endloop
  endfacet
  facet normal -1 -0 0
    outer loop
      vertex 37.5 1 12.5
      vertex 37.5 0 -12.5
      vertex 37.5 0 12.5
    endloop
  endfacet
endsolid OpenSCAD_Model
